<svg width="9" height="20" viewBox="0 0 9 20" fill="none" xmlns="http://www.w3.org/2000/svg">
<path d="M4.84375 0.375C4.25319 0.375 3.64475 0.572313 3.18275 1.03431C2.718 1.49838 2.4375 2.19481 2.4375 3.125V3.14906C1.86471 3.23174 1.3409 3.51808 0.962094 3.95561C0.583284 4.39313 0.374852 4.95252 0.375 5.53125V7.59375C0.375 7.68492 0.411216 7.77235 0.475682 7.83682C0.540147 7.90128 0.627582 7.9375 0.71875 7.9375H4.84375C4.93492 7.9375 5.02235 7.90128 5.08682 7.83682C5.15128 7.77235 5.1875 7.68492 5.1875 7.59375V5.53125C5.18765 4.95252 4.97922 4.39313 4.60041 3.95561C4.2216 3.51808 3.69779 3.23174 3.125 3.14906V3.125C3.125 2.33644 3.36013 1.82906 3.66881 1.52037C3.98025 1.20894 4.40375 1.0625 4.84375 1.0625C5.28375 1.0625 5.70725 1.20894 6.01869 1.52037C6.32806 1.82975 6.5625 2.33644 6.5625 3.125V17.942C5.96162 18.0713 5.53538 18.5381 5.35938 19.1431C5.35938 19.1431 5.1875 19.625 5.53125 19.625H8.28125C8.625 19.625 8.45312 19.1437 8.45312 19.1437C8.27712 18.5387 7.85088 18.0713 7.25 17.942V3.125C7.25 2.19481 6.9695 1.49906 6.50475 1.03431C6.04275 0.572313 5.435 0.375 4.84375 0.375Z" fill="black"/>
</svg>
