<svg width="20" height="19" viewBox="0 0 20 19" fill="none" xmlns="http://www.w3.org/2000/svg">
<path d="M18.173 6.767C18.2215 6.65693 18.2477 6.53839 18.2503 6.41816C18.2529 6.29794 18.2317 6.17838 18.188 6.06634C18.1443 5.9543 18.079 5.85197 17.9958 5.7652C17.9125 5.67843 17.8129 5.60893 17.7028 5.56067L5.71737 0.284337C4.80529 -0.117163 3.68237 0.331087 3.29279 1.2395L1.26696 5.964C1.07637 6.4109 1.07087 6.91516 1.25166 7.36611C1.43246 7.81706 1.78477 8.17786 2.23129 8.36934L7.76612 10.7417L6.62946 13.5833H2.66671V10.8333H0.833374V18.1667H2.66671V15.4167H6.62946C7.38387 15.4167 8.05212 14.9638 8.33079 14.2635L9.45096 11.464L14.2222 13.5082C14.4444 13.6035 14.6953 13.6072 14.9202 13.5185C15.1451 13.4297 15.3258 13.2557 15.423 13.0343L15.709 12.3834L17.2683 13.0068L19.1016 8.42342L17.6936 7.8615L18.173 6.767ZM14.1085 11.4658L2.95362 6.68542L4.97762 1.96275L16.1261 6.87059L14.1085 11.4658Z" fill="black"/>
</svg>
