<svg width="10" height="20" viewBox="0 0 10 20" fill="none" xmlns="http://www.w3.org/2000/svg">
<path d="M0.5 19.0625V4.25H9.5V19.0625C9.5 19.3059 9.30589 19.5 9.0625 19.5C8.81911 19.5 8.625 19.3059 8.625 19.0625V18.75V18.25H8.125H1.875H1.375V18.75V19.0625C1.375 19.3059 1.18089 19.5 0.9375 19.5C0.694111 19.5 0.5 19.3059 0.5 19.0625ZM1.25 0.5H8.75C9.16526 0.5 9.5 0.834736 9.5 1.25V2H0.5V1.25C0.5 0.834736 0.834736 0.5 1.25 0.5ZM7.5 8.25C6.88011 8.25 6.375 8.75511 6.375 9.375V11.875C6.375 12.4949 6.88011 13 7.5 13C8.11989 13 8.625 12.4949 8.625 11.875V9.375C8.625 8.75511 8.11989 8.25 7.5 8.25Z" stroke="black"/>
</svg>
