<svg width="15" height="10" viewBox="0 0 15 10" fill="none" xmlns="http://www.w3.org/2000/svg">
<path fill-rule="evenodd" clip-rule="evenodd" d="M14.5 5.00002C14.5 4.86741 14.4473 4.74024 14.3535 4.64647C14.2598 4.5527 14.1326 4.50002 14 4.50002H2.20698L5.35398 1.35402C5.40047 1.30753 5.43734 1.25234 5.4625 1.1916C5.48766 1.13087 5.50061 1.06577 5.50061 1.00002C5.50061 0.934277 5.48766 0.869177 5.4625 0.808438C5.43734 0.747698 5.40047 0.692509 5.35398 0.646021C5.30749 0.599533 5.2523 0.562657 5.19156 0.537498C5.13082 0.512339 5.06572 0.49939 4.99998 0.49939C4.93423 0.49939 4.86913 0.512339 4.80839 0.537498C4.74765 0.562657 4.69247 0.599533 4.64598 0.646021L0.645978 4.64602C0.599415 4.69247 0.562472 4.74764 0.537266 4.80839C0.512059 4.86913 0.499084 4.93425 0.499084 5.00002C0.499084 5.06579 0.512059 5.13091 0.537266 5.19165C0.562472 5.2524 0.599415 5.30758 0.645978 5.35402L4.64598 9.35402C4.69247 9.40051 4.74765 9.43739 4.80839 9.46254C4.86913 9.4877 4.93423 9.50065 4.99998 9.50065C5.06572 9.50065 5.13082 9.4877 5.19156 9.46254C5.2523 9.43739 5.30749 9.40051 5.35398 9.35402C5.40047 9.30753 5.43734 9.25234 5.4625 9.1916C5.48766 9.13087 5.50061 9.06576 5.50061 9.00002C5.50061 8.93428 5.48766 8.86918 5.4625 8.80844C5.43734 8.7477 5.40047 8.69251 5.35398 8.64602L2.20698 5.50002H14C14.1326 5.50002 14.2598 5.44734 14.3535 5.35357C14.4473 5.25981 14.5 5.13263 14.5 5.00002Z" fill="white"/>
</svg>
