<svg width="22" height="14" viewBox="0 0 22 14" fill="none" xmlns="http://www.w3.org/2000/svg">
<path fill-rule="evenodd" clip-rule="evenodd" d="M21.5 6.99997C21.5 6.80106 21.421 6.61029 21.2803 6.46964C21.1397 6.32899 20.9489 6.24997 20.75 6.24997H3.0605L7.781 1.53097C7.85073 1.46124 7.90604 1.37846 7.94378 1.28735C7.98152 1.19624 8.00095 1.09859 8.00095 0.999971C8.00095 0.901355 7.98152 0.803705 7.94378 0.712596C7.90604 0.621487 7.85073 0.538703 7.781 0.468971C7.71127 0.399239 7.62848 0.343925 7.53737 0.306186C7.44626 0.268447 7.34861 0.249023 7.25 0.249023C7.15138 0.249023 7.05373 0.268447 6.96262 0.306186C6.87151 0.343925 6.78873 0.399239 6.719 0.468971L0.718998 6.46897C0.649153 6.53864 0.593739 6.6214 0.555929 6.71252C0.518119 6.80364 0.498657 6.90132 0.498657 6.99997C0.498657 7.09862 0.518119 7.1963 0.555929 7.28742C0.593739 7.37854 0.649153 7.4613 0.718998 7.53097L6.719 13.531C6.78873 13.6007 6.87151 13.656 6.96262 13.6938C7.05373 13.7315 7.15138 13.7509 7.25 13.7509C7.34861 13.7509 7.44626 13.7315 7.53737 13.6938C7.62848 13.656 7.71127 13.6007 7.781 13.531C7.85073 13.4612 7.90604 13.3785 7.94378 13.2873C7.98152 13.1962 8.00095 13.0986 8.00095 13C8.00095 12.9014 7.98152 12.8037 7.94378 12.7126C7.90604 12.6215 7.85073 12.5387 7.781 12.469L3.0605 7.74997H20.75C20.9489 7.74997 21.1397 7.67095 21.2803 7.5303C21.421 7.38965 21.5 7.19888 21.5 6.99997Z" fill="black"/>
</svg>
