<svg width="14" height="9" viewBox="0 0 14 9" fill="none" xmlns="http://www.w3.org/2000/svg">
<path fill-rule="evenodd" clip-rule="evenodd" d="M0.875 4.50006C0.875 4.38403 0.921094 4.27275 1.00314 4.19071C1.08519 4.10866 1.19647 4.06256 1.3125 4.06256H11.6314L8.87775 1.30981C8.7956 1.22766 8.74945 1.11624 8.74945 1.00006C8.74945 0.883886 8.7956 0.772465 8.87775 0.690314C8.9599 0.608163 9.07132 0.562012 9.1875 0.562012C9.30368 0.562012 9.4151 0.608163 9.49725 0.690314L12.9972 4.19031C13.038 4.23095 13.0703 4.27923 13.0924 4.33239C13.1144 4.38554 13.1258 4.44252 13.1258 4.50006C13.1258 4.55761 13.1144 4.61459 13.0924 4.66774C13.0703 4.7209 13.038 4.76917 12.9972 4.80981L9.49725 8.30981C9.4151 8.39196 9.30368 8.43812 9.1875 8.43812C9.07132 8.43812 8.9599 8.39196 8.87775 8.30981C8.7956 8.22766 8.74945 8.11624 8.74945 8.00006C8.74945 7.88389 8.7956 7.77246 8.87775 7.69031L11.6314 4.93756H1.3125C1.19647 4.93756 1.08519 4.89147 1.00314 4.80942C0.921094 4.72738 0.875 4.6161 0.875 4.50006Z" fill="white"/>
</svg>
