<svg width="20" height="22" viewBox="0 0 20 22" fill="none" xmlns="http://www.w3.org/2000/svg">
<path d="M13.8885 0.16775C13.9629 0.232379 14.0225 0.312236 14.0633 0.40191C14.1041 0.491583 14.1251 0.588979 14.125 0.6875V1.375H14.8125C15.3595 1.375 15.8841 1.5923 16.2709 1.97909C16.6577 2.36589 16.875 2.89049 16.875 3.4375V20.625H18.9375C19.1198 20.625 19.2947 20.6974 19.4236 20.8264C19.5526 20.9553 19.625 21.1302 19.625 21.3125C19.625 21.4948 19.5526 21.6697 19.4236 21.7986C19.2947 21.9276 19.1198 22 18.9375 22H1.0625C0.880164 22 0.705295 21.9276 0.576364 21.7986C0.447433 21.6697 0.375 21.4948 0.375 21.3125C0.375 21.1302 0.447433 20.9553 0.576364 20.8264C0.705295 20.6974 0.880164 20.625 1.0625 20.625H3.125V2.0625C3.12503 1.89686 3.18485 1.73679 3.29348 1.61174C3.40211 1.48669 3.55224 1.40507 3.71625 1.38187L13.3413 0.00687493C13.4387 -0.00703739 13.5379 0.000125461 13.6323 0.0278794C13.7268 0.0556333 13.8141 0.103331 13.8885 0.16775ZM14.8125 2.75H14.125V20.625H15.5V3.4375C15.5 3.25516 15.4276 3.0803 15.2986 2.95136C15.1697 2.82243 14.9948 2.75 14.8125 2.75ZM4.5 2.65925V20.625H12.75V1.48088L4.5 2.65925Z" fill="black"/>
</svg>
