<svg width="14" height="15" viewBox="0 0 14 15" fill="none" xmlns="http://www.w3.org/2000/svg">
<path fill-rule="evenodd" clip-rule="evenodd" d="M13.3754 7.83346C13.2363 9.01383 12.7619 10.1296 12.0082 11.0487C11.5673 11.5872 10.4467 13.1258 10.2083 14.125H3.79168C3.55334 13.1249 2.43134 11.5863 1.99043 11.0473C1.23714 10.1278 0.763146 9.01171 0.624592 7.83116C0.487992 6.65314 0.693575 5.46069 1.21676 4.39641C1.74486 3.32402 2.56576 2.42303 3.58451 1.79766C4.6121 1.16619 5.79481 0.83235 7.00093 0.83333C8.21001 0.83333 9.39434 1.16791 10.4173 1.79904C11.4358 2.42464 12.2564 3.32579 12.7842 4.39825C13.3071 5.46275 13.5124 6.65536 13.3754 7.83346ZM9.55888 13.2083H4.44068C4.24543 12.7578 3.98463 12.3063 3.74172 11.9227C3.42207 11.4186 3.07441 10.9327 2.70038 10.4675C2.0579 9.68358 1.65357 8.73193 1.5353 7.72529C1.41887 6.72207 1.5939 5.70656 2.03947 4.80021C2.49143 3.88314 3.19379 3.11276 4.0653 2.57821C4.94833 2.03575 5.96459 1.74904 7.00093 1.75C8.04134 1.75 9.05884 2.03829 9.93655 2.57958C10.8077 3.11425 11.5098 3.88462 11.9615 4.80158C12.4068 5.70816 12.5815 6.72384 12.4647 7.72712C12.346 8.73354 11.9414 9.68486 11.2987 10.4684C10.9245 10.9334 10.577 11.4192 10.2578 11.9236C10.0149 12.3072 9.75459 12.7578 9.55934 13.2083H9.55888Z" fill="black"/>
</svg>
