<svg width="18" height="18" viewBox="0 0 18 18" fill="none" xmlns="http://www.w3.org/2000/svg">
<path fill-rule="evenodd" clip-rule="evenodd" d="M3.68323 17.4792C2.95389 17.4792 2.25441 17.2101 1.73869 16.7312C1.22296 16.2524 0.933228 15.6028 0.933228 14.9256L0.933228 3.30358C0.933228 2.62633 1.22296 1.97682 1.73869 1.49793C2.25441 1.01904 2.95389 0.750006 3.68323 0.750006H14.3166C15.0459 0.750006 15.7454 1.01904 16.2611 1.49793C16.7769 1.97682 17.0666 2.62633 17.0666 3.30358V14.9256C17.0666 15.6028 16.7769 16.2524 16.2611 16.7312C15.7454 17.2101 15.0459 17.4792 14.3166 17.4792H3.68323ZM2.76657 14.9256L2.76657 3.30358C2.76657 3.07783 2.86314 2.86132 3.03505 2.70169C3.20696 2.54206 3.44012 2.45239 3.68323 2.45239H8.17491V15.7768H3.68323C3.44012 15.7768 3.20696 15.6871 3.03505 15.5275C2.86314 15.3679 2.76657 15.1514 2.76657 14.9256ZM10.0082 15.7768L10.0082 2.45239H14.3166C14.5597 2.45239 14.7929 2.54206 14.9648 2.70169C15.1367 2.86132 15.2333 3.07783 15.2333 3.30358V11.5208V14.9256C15.2333 15.1514 15.1367 15.3679 14.9648 15.5275C14.7929 15.6871 14.5597 15.7768 14.3166 15.7768H10.0082Z" fill="black"/>
</svg>
