<svg width="14" height="20" viewBox="0 0 14 20" fill="none" xmlns="http://www.w3.org/2000/svg">
<path d="M1.5 0.377747C1.31766 0.377747 1.1428 0.450179 1.01386 0.579111C0.884933 0.708042 0.8125 0.88291 0.8125 1.06525V10.6875C0.8125 11.4168 1.10223 12.1163 1.61796 12.632C2.13368 13.1478 2.83315 13.4375 3.5625 13.4375H4.25V16.875C4.25 17.236 4.3211 17.5934 4.45923 17.9268C4.59736 18.2603 4.79982 18.5633 5.05505 18.8186C5.31029 19.0738 5.61329 19.2763 5.94677 19.4144C6.28025 19.5525 6.63767 19.6236 6.99863 19.6236C7.35958 19.6236 7.717 19.5525 8.05048 19.4144C8.38396 19.2763 8.68696 19.0738 8.9422 18.8186C9.19743 18.5633 9.39989 18.2603 9.53802 17.9268C9.67615 17.5934 9.74725 17.236 9.74725 16.875V13.4375H10.4375C11.1668 13.4375 11.8663 13.1478 12.382 12.632C12.8978 12.1163 13.1875 11.4168 13.1875 10.6875V1.06525C13.1875 0.88291 13.1151 0.708042 12.9861 0.579111C12.8572 0.450179 12.6823 0.377747 12.5 0.377747H1.5ZM11.8125 8.625H2.1875V1.75275H6.3125V3.818C6.3125 4.00033 6.38493 4.1752 6.51386 4.30413C6.6428 4.43306 6.81766 4.5055 7 4.5055C7.18234 4.5055 7.35721 4.43306 7.48614 4.30413C7.61507 4.1752 7.6875 4.00033 7.6875 3.818V1.75275H9.0625V5.18475C9.0625 5.36708 9.13493 5.54195 9.26386 5.67088C9.39279 5.79981 9.56766 5.87225 9.75 5.87225C9.93234 5.87225 10.1072 5.79981 10.2361 5.67088C10.3651 5.54195 10.4375 5.36708 10.4375 5.18475V1.75275H11.8125V8.625ZM2.1875 10.6875V10H11.8125V10.6875C11.8125 11.0522 11.6676 11.4019 11.4098 11.6598C11.1519 11.9176 10.8022 12.0625 10.4375 12.0625H9.05975C8.87741 12.0625 8.70255 12.1349 8.57361 12.2639C8.44468 12.3928 8.37225 12.5677 8.37225 12.75V16.875C8.37225 17.2393 8.22753 17.5887 7.96992 17.8463C7.71232 18.1039 7.36293 18.2486 6.99863 18.2486C6.63432 18.2486 6.28493 18.1039 6.02733 17.8463C5.76972 17.5887 5.625 17.2393 5.625 16.875V12.75C5.625 12.5677 5.55257 12.3928 5.42364 12.2639C5.2947 12.1349 5.11984 12.0625 4.9375 12.0625H3.5625C3.19783 12.0625 2.84809 11.9176 2.59023 11.6598C2.33237 11.4019 2.1875 11.0522 2.1875 10.6875Z" fill="black"/>
</svg>
