<svg width="22" height="22" viewBox="0 0 22 22" fill="none" xmlns="http://www.w3.org/2000/svg">
<path d="M0.733333 5.1334L0.579333 4.4162C0.415293 4.45143 0.268295 4.54185 0.162865 4.67237C0.0574353 4.80289 -5.00677e-05 4.96562 3.27204e-08 5.1334H0.733333ZM21.2667 0.7334H22C22 0.624006 21.9756 0.51599 21.9285 0.417267C21.8813 0.318545 21.8127 0.231616 21.7276 0.16285C21.6426 0.0940843 21.5432 0.045224 21.4368 0.0198489C21.3304 -0.00552616 21.2196 -0.006773 21.1127 0.0161997L21.2667 0.7334ZM21.2667 21.2667L21.164 21.9927C21.2679 22.0074 21.3738 21.9996 21.4745 21.9699C21.5751 21.9401 21.6683 21.8891 21.7475 21.8203C21.8268 21.7515 21.8903 21.6664 21.9339 21.5709C21.9774 21.4754 22 21.3717 22 21.2667H21.2667ZM0.733333 18.3334H3.27204e-08C2.68016e-05 18.5101 0.0638441 18.6808 0.179715 18.8142C0.295586 18.9476 0.45572 19.0347 0.630667 19.0594L0.733333 18.3334ZM0.887333 5.8506L21.4207 1.4506L21.1127 0.0161997L0.579333 4.4162L0.887333 5.8506ZM20.5333 0.7334V21.2667H22V0.7334H20.5333ZM21.3693 20.5407L0.836 17.6074L0.630667 19.0594L21.164 21.9927L21.3693 20.5407ZM1.46667 18.3334V5.1334H3.27204e-08V18.3334H1.46667ZM0.733333 11.7334H21.2667V10.2667H0.733333V11.7334ZM8.8 2.9334V19.0667H10.2667V2.9334H8.8Z" fill="black"/>
</svg>
